<?xml version="1.0" encoding="utf-8"?>
<!-- Generator: Adobe Illustrator 22.1.0, SVG Export Plug-In . SVG Version: 6.00 Build 0)  -->
<svg version="1.1" id="Layer_1" xmlns="http://www.w3.org/2000/svg" xmlns:xlink="http://www.w3.org/1999/xlink" x="0px" y="0px"
	 viewBox="0 0 176 36" style="enable-background:new 0 0 176 36;" xml:space="preserve">
<style type="text/css">
	.st0{fill:#FF6B00;}
	.st1{fill:#222222;}
</style>
<g>
	<path class="st0" d="M15.9,8.9h4.8V28h-4.8v-2c-1,0.9-1.9,1.6-2.8,1.9s-2,0.6-3,0.6c-2.5,0-4.6-1-6.4-2.9s-2.7-4.3-2.7-7.2
		c0-2.9,0.9-5.3,2.6-7.2c1.8-1.9,3.8-2.8,6.4-2.8C11,8.4,12.1,8.6,13,9c1,0.4,1.9,1.1,2.8,2L15.9,8.9L15.9,8.9z M10.8,12.8
		c-1.5,0-2.7,0.5-3.7,1.6c-1,1.1-1.5,2.4-1.5,4.1c0,1.7,0.5,3,1.5,4.1c1,1.1,2.2,1.6,3.7,1.6c1.5,0,2.8-0.5,3.7-1.6
		c1-1.1,1.5-2.4,1.5-4.1c0-1.7-0.5-3-1.5-4.1C13.6,13.3,12.3,12.8,10.8,12.8"/>
	<path class="st0" d="M30.3,8.9V11c0.9-0.9,1.8-1.5,2.8-2c1-0.4,2.1-0.6,3.3-0.6c2.5,0,4.6,1,6.4,2.8c1.8,1.9,2.6,4.3,2.6,7.3
		c0,2.8-0.9,5.2-2.7,7.2s-4,2.9-6.4,2.9c-1.1,0-2.1-0.2-3.1-0.6c-1-0.4-1.9-1-2.8-1.9v9h-4.8V8.9H30.3z M35.3,12.8
		c-1.5,0-2.8,0.5-3.7,1.6c-1,1-1.5,2.4-1.5,4.1c0,1.7,0.5,3.1,1.5,4.1c1,1.1,2.2,1.6,3.7,1.6c1.4,0,2.7-0.5,3.7-1.6
		c1-1.1,1.5-2.4,1.5-4.1c0-1.7-0.5-3-1.5-4.1C38.1,13.3,36.8,12.8,35.3,12.8"/>
	<path class="st0" d="M54.1,8.9V11c0.9-0.9,1.8-1.5,2.8-2c1-0.4,2.1-0.6,3.3-0.6c2.5,0,4.6,1,6.4,2.8c1.8,1.9,2.6,4.3,2.6,7.3
		c0,2.8-0.9,5.2-2.7,7.2s-4,2.9-6.4,2.9c-1.1,0-2.1-0.2-3.1-0.6c-1-0.4-1.9-1-2.8-1.9v9h-4.8V8.9H54.1z M59.1,12.8
		c-1.5,0-2.8,0.5-3.7,1.6c-1,1-1.5,2.4-1.5,4.1c0,1.7,0.5,3.1,1.5,4.1c1,1.1,2.2,1.6,3.7,1.6c1.4,0,2.7-0.5,3.7-1.6
		c1-1.1,1.5-2.4,1.5-4.1c0-1.7-0.5-3-1.5-4.1C61.9,13.3,60.6,12.8,59.1,12.8"/>
	<polygon class="st1" points="71.1,8.9 76,8.9 80.8,20.2 85.6,8.9 90.5,8.9 82.3,28 79.2,28 	"/>
	<path class="st1" d="M95.2,1c0.9,0,1.6,0.3,2.2,0.9c0.6,0.6,0.9,1.3,0.9,2.2s-0.3,1.6-0.9,2.2S96,7.2,95.2,7.2
		c-0.9,0-1.6-0.3-2.2-0.9c-0.6-0.6-0.9-1.4-0.9-2.2s0.3-1.6,0.9-2.1C93.6,1.3,94.3,1,95.2,1 M92.8,8.9h4.8V28h-4.8V8.9z"/>
	<path class="st1" d="M121.1,19.8h-15.5c0.2,1.3,0.8,2.5,1.8,3.3s2.2,1.2,3.7,1.2c1.8,0,3.3-0.6,4.7-1.9l4.1,1.9
		c-1,1.4-2.2,2.5-3.6,3.2c-1.4,0.7-3.1,1-5,1c-3,0-5.5-1-7.3-2.8c-1.9-1.9-2.8-4.3-2.8-7.1c0-2.9,1-5.3,2.8-7.3
		c1.9-1.9,4.2-2.9,7.1-2.9c3,0,5.5,1,7.4,2.9c1.9,1.9,2.8,4.5,2.8,7.6L121.1,19.8z M116.3,16c-0.3-1.1-1-1.9-1.9-2.6
		c-0.9-0.7-2-1-3.3-1c-1.3,0-2.5,0.4-3.5,1.1c-0.6,0.5-1.2,1.3-1.8,2.5L116.3,16L116.3,16z"/>
	<polygon class="st1" points="122.9,8.9 127.6,8.9 131.4,19.8 135.6,8.9 138.5,8.9 142.5,19.6 146.4,8.9 151.1,8.9 144.1,28 
		141.1,28 137,17.1 132.8,28 129.8,28 	"/>
	<polygon class="st1" points="152.7,2.1 158.2,2.1 163.7,10.4 169.1,2.1 174.7,2.1 166.4,14.7 175.1,28 169.6,28 163.7,18.9 
		157.7,28 152.2,28 160.9,14.7 	"/>
</g>
</svg>
